<svg width="80" height="83" viewBox="0 0 50 53" fill="none" xmlns="http://www.w3.org/2000/svg">
<g clip-path="url(#clip0_2_2)">
<path d="M1.25 16.0981L25 0L48.75 16.0981L25 2.47664L1.25 16.0981ZM1.25 33.1869L25 53L48.75 31.9486L25 50.5234L1.25 33.1869Z" fill="#FFF"/>
<path d="M0.173221 30.8218C0.0363685 30.8218 -0.0457433 30.5145 0.0272449 30.5055C0.437804 30.4603 0.875733 29.9994 0.875733 28.9328V23.6455C0.875733 23.0128 0.510792 22.8862 0.11848 22.832C0.045492 22.823 0.100233 22.5518 0.173221 22.5518H2.67307C2.74606 22.5518 2.8008 22.823 2.72781 22.832C2.3355 22.8862 1.97056 23.0128 1.97056 23.6455V28.9328C1.97056 29.8457 0.802745 30.8218 0.173221 30.8218V30.8218ZM6.85301 28.1827C6.93512 28.1646 7.00811 28.4086 6.95337 28.4357C6.59755 28.6075 5.85855 29.0232 5.6852 29.0232C4.56301 29.0232 3.12149 28.499 3.12149 26.8992C3.12149 25.8237 3.78751 24.5131 5.42062 24.5131C6.79827 24.5131 6.97162 25.4893 6.97162 25.8689C6.97162 26.1039 6.89863 26.4564 6.80739 26.6642L4.09771 26.7365C4.27105 27.8573 5.19253 28.3273 5.91329 28.3273C5.9954 28.3273 6.38771 28.2821 6.85301 28.1827V28.1827ZM5.10129 25.0916C4.38054 25.0916 4.09771 25.5796 4.07034 26.2666L6.05014 26.2033C6.14138 25.7152 5.90416 25.0916 5.10129 25.0916V25.0916ZM8.66996 29.0232C8.04044 29.0232 7.42004 28.6527 7.42004 27.9206C7.42004 27.4325 7.71199 27.1704 8.36889 26.9625L9.70092 26.5377C9.97463 26.4473 10.0567 26.4383 10.0567 26.2123V25.8508C10.0567 25.2904 9.77391 25.2272 9.41809 25.2272C8.93454 25.2272 8.35976 25.3537 8.02219 25.3898C7.94008 25.3989 7.88534 25.3537 7.87621 25.2904L7.85797 25.1277C7.8306 24.8927 9.21737 24.5131 9.91076 24.5131C10.9691 24.5131 11.0421 25.3446 11.0421 25.9864V27.8934C11.0421 28.6527 11.699 28.3454 11.8267 28.4267C11.8723 28.4538 11.8906 28.5171 11.8906 28.5532C11.8906 28.743 11.1151 29.0232 10.7319 29.0232C10.4399 29.0232 10.2575 28.8605 10.0385 28.3996C9.17176 28.9238 8.98016 29.0232 8.66996 29.0232V29.0232ZM9.10789 28.3544C9.57319 28.3544 10.0659 28.029 10.0659 27.5681V26.8631C10.0111 26.8992 10.0202 26.9083 9.8469 26.9625L8.92542 27.2698C8.63347 27.3692 8.48749 27.5229 8.48749 27.794C8.48749 28.1375 8.7247 28.3544 9.10789 28.3544ZM11.9832 28.8786C11.9102 28.8786 11.8463 28.6165 11.9193 28.6075C12.193 28.5713 12.5488 28.4448 12.5488 27.9206V25.7514C12.5488 25.3175 12.3116 25.2181 11.9284 25.1729C11.8554 25.1639 11.8919 24.9289 11.9649 24.9108L13.4064 24.5131C13.5159 24.486 13.5615 24.5583 13.5615 24.6487C13.5615 24.9018 13.6345 24.9922 13.7805 24.9379C14.2276 24.7752 14.6564 24.5131 15.2038 24.5131C16.0979 24.5131 16.4081 25.191 16.4081 25.7785V27.9206C16.4081 28.4448 16.7639 28.5713 17.0376 28.6075C17.1106 28.6165 17.0467 28.8786 16.9829 28.8786H14.9483C14.8845 28.8786 14.8388 28.6165 14.8936 28.6075C15.2403 28.5532 15.4319 28.3996 15.4319 27.9206V26.1852C15.4319 25.426 15.0578 25.2543 14.4739 25.2543C14.0816 25.2543 13.525 25.3627 13.525 25.5977V27.9206C13.525 28.3996 13.7714 28.5623 14.109 28.6075C14.1728 28.6165 14.1181 28.8786 14.0451 28.8786H11.9832V28.8786ZM26.7843 28.5713C26.8573 28.5803 26.8025 28.8786 26.7386 28.8786H24.3574C24.2935 28.8786 24.2479 28.5803 24.3027 28.5713C24.6859 28.508 24.9687 28.3273 24.9413 27.7579L24.768 24.721L23.29 27.7036C23.0984 28.0923 22.9524 28.49 22.925 28.6346C22.9068 28.743 22.7152 28.7973 22.5692 28.7973C22.4323 28.7973 22.3411 28.743 22.2864 28.6346L20.1788 24.6758L20.042 27.7579C20.0146 28.3905 20.3887 28.5352 20.6806 28.5713C20.7536 28.5803 20.6989 28.8786 20.635 28.8786H18.7464C18.6735 28.8786 18.6187 28.5803 18.6917 28.5713C19.084 28.5261 19.4125 28.3905 19.449 27.7579L19.7409 22.5699C19.75 22.4163 20.0967 22.4072 20.188 22.5699L22.8338 27.4686L25.288 22.5699C25.3701 22.4072 25.7351 22.4163 25.7442 22.5699L26.0361 27.7579C26.0726 28.3905 26.4011 28.5261 26.7843 28.5713V28.5713ZM28.4279 29.0232C27.7983 29.0232 27.1779 28.6527 27.1779 27.9206C27.1779 27.4325 27.4699 27.1704 28.1268 26.9625L29.4588 26.5377C29.7325 26.4473 29.8146 26.4383 29.8146 26.2123V25.8508C29.8146 25.2904 29.5318 25.2272 29.176 25.2272C28.6925 25.2272 28.1177 25.3537 27.7801 25.3898C27.698 25.3989 27.6432 25.3537 27.6341 25.2904L27.6159 25.1277C27.5885 24.8927 28.9753 24.5131 29.6687 24.5131C30.727 24.5131 30.8 25.3446 30.8 25.9864V27.8934C30.8 28.6527 31.4569 28.3454 31.5846 28.4267C31.6302 28.4538 31.6485 28.5171 31.6485 28.5532C31.6485 28.743 30.873 29.0232 30.4898 29.0232C30.1978 29.0232 30.0154 28.8605 29.7964 28.3996C28.9297 28.9238 28.7381 29.0232 28.4279 29.0232V29.0232ZM28.8658 28.3544C29.3311 28.3544 29.8238 28.029 29.8238 27.5681V26.8631C29.769 26.8992 29.7782 26.9083 29.6048 26.9625L28.6833 27.2698C28.3914 27.3692 28.2454 27.5229 28.2454 27.794C28.2454 28.1375 28.4826 28.3544 28.8658 28.3544V28.3544ZM31.7411 28.8786C31.6681 28.8786 31.6042 28.6165 31.6772 28.6075C31.9509 28.5713 32.3067 28.4357 32.3067 27.8121V25.7514C32.3067 25.3175 32.0695 25.2181 31.6863 25.1729C31.6134 25.1639 31.6498 24.9289 31.7228 24.9108L33.1644 24.5131C33.2738 24.486 33.3195 24.5583 33.3195 24.6397C33.3195 24.9018 33.3377 25.2181 33.5384 25.0916C33.876 24.8747 34.3778 24.5131 34.6789 24.5131C34.8066 24.5131 35.135 24.7752 35.1077 24.9199C35.0255 25.3537 34.9252 25.67 34.7883 25.67C34.7427 25.67 34.5238 25.435 34.0402 25.435C33.6753 25.435 33.283 25.5435 33.283 26.0135V27.8121C33.283 28.4357 33.5384 28.4809 34.3687 28.6075C34.4325 28.6165 34.4052 28.8786 34.2227 28.8786H31.7411ZM36.9429 29.0232C36.5688 29.0232 36.067 28.6798 36.067 28.4177V25.8056C36.067 25.2814 35.9119 25.1277 35.2733 25.1277C35.1729 25.1277 35.1729 24.8475 35.2459 24.8204C35.9393 24.5493 36.2768 24.3053 36.7695 23.7449C36.8881 23.6093 37.1345 23.7449 37.098 23.8985C37.0615 24.0612 37.0432 24.1968 37.0432 24.3052C37.0432 24.6306 37.1892 24.73 37.4082 24.73C37.7457 24.73 38.1654 24.6397 38.4939 24.6126C38.5851 24.6035 38.6216 24.6849 38.6216 24.8024C38.6216 25.0373 38.4756 25.3718 38.3296 25.3627L37.9738 25.3356C37.3534 25.2904 37.0341 25.2995 37.0341 25.7152V27.8482C37.0341 28.1917 37.2074 28.3182 37.5268 28.3182C37.8096 28.3182 38.3114 28.264 38.5577 28.2369C38.6307 28.2279 38.7128 28.499 38.6216 28.5352C38.1198 28.734 37.691 28.8605 36.9429 29.0232V29.0232ZM39.882 23.6635C39.6813 23.6635 39.1886 23.2387 39.1886 22.9766C39.1886 22.7145 39.6813 22.2897 39.882 22.2897C40.0827 22.2897 40.5754 22.7145 40.5754 22.9766C40.5754 23.2387 40.0827 23.6635 39.882 23.6635ZM38.8875 28.8786C38.8146 28.8786 38.7507 28.6165 38.8237 28.6075C39.1065 28.5713 39.4623 28.4448 39.4623 27.9206V25.9231C39.4623 25.3718 39.3163 25.2362 38.8419 25.1729C38.7689 25.1639 38.7963 24.9289 38.8602 24.9108L40.475 24.5312C40.5663 24.5131 40.6119 24.5764 40.5845 24.6939C40.5207 24.9831 40.4385 25.5164 40.4385 26.1039V27.9206C40.4385 28.4448 40.7944 28.5713 41.0772 28.6075C41.1411 28.6165 41.0863 28.8786 41.0133 28.8786H38.8875V28.8786ZM41.334 28.8786C41.261 28.8786 41.1972 28.6165 41.2701 28.6075C41.5439 28.5713 41.8997 28.4448 41.8997 27.9206V25.7514C41.8997 25.3175 41.6625 25.2181 41.2793 25.1729C41.2063 25.1639 41.2428 24.9289 41.3158 24.9108L42.7573 24.5131C42.8668 24.486 42.9124 24.5583 42.9124 24.6487C42.9124 24.9018 42.9854 24.9922 43.1313 24.9379C43.5784 24.7752 44.0072 24.5131 44.5546 24.5131C45.4487 24.5131 45.7589 25.191 45.7589 25.7785V27.9206C45.7589 28.4448 46.1147 28.5713 46.3884 28.6075C46.4614 28.6165 46.3976 28.8786 46.3337 28.8786H44.2992C44.2353 28.8786 44.1897 28.6165 44.2444 28.6075C44.5911 28.5532 44.7827 28.3996 44.7827 27.9206V26.1852C44.7827 25.426 44.4086 25.2543 43.8247 25.2543C43.4324 25.2543 42.8759 25.3627 42.8759 25.5977V27.9206C42.8759 28.3996 43.1222 28.5623 43.4598 28.6075C43.5237 28.6165 43.4689 28.8786 43.3959 28.8786H41.334V28.8786ZM48.1598 29.0232C47.4208 29.0232 46.6453 28.725 46.7456 28.4538L46.8916 28.0742C47.1015 27.5229 47.4755 28.4719 48.4974 28.4719C49.3823 28.4719 49.5009 27.8934 48.7984 27.5409L47.6032 26.9444C46.2073 26.2485 46.6726 24.5131 48.4609 24.5131C49.136 24.5131 49.8294 24.7843 49.7199 25.0464L49.5648 25.426C49.3458 25.9683 48.9991 25.0735 48.0959 25.0735C47.4025 25.0735 47.2748 25.652 47.9134 25.9683L49.1542 26.5919C50.614 27.324 50.1213 29.0232 48.1598 29.0232V29.0232Z" fill="#FFF"/>
</g>
<defs>
<clipPath id="clip0_2_2">
<rect width="50" height="53" fill="white"/>
</clipPath>
</defs>
</svg>
