<svg width="549" height="222" viewBox="0 0 549 222" fill="none" xmlns="http://www.w3.org/2000/svg">
<rect width="549" height="222" rx="4" fill="#0E091B"/>
<g clip-path="url(#clip0_70613_764)">
<path d="M269.5 69.75C269.5 74.7228 267.525 79.4919 264.008 83.0083C260.492 86.5246 255.723 88.5 250.75 88.5C245.777 88.5 241.008 86.5246 237.492 83.0083C233.975 79.4919 232 74.7228 232 69.75C232 64.7772 233.975 60.0081 237.492 56.4917C241.008 52.9754 245.777 51 250.75 51C255.723 51 260.492 52.9754 264.008 56.4917C267.525 60.0081 269.5 64.7772 269.5 69.75ZM301.188 100.147C300.484 99.7952 299.688 99.673 298.911 99.7981C298.135 99.9233 297.417 100.29 296.86 100.845L269.035 136.17L249.085 115.38C248.365 114.9 247.501 114.685 246.64 114.77C245.778 114.854 244.973 115.234 244.36 115.845L217.015 148.5V163.5C217.015 165.489 217.805 167.397 219.212 168.803C220.618 170.21 222.526 171 224.515 171H329.515C330.5 171 331.475 170.806 332.385 170.429C333.295 170.052 334.122 169.5 334.818 168.803C335.515 168.107 336.067 167.28 336.444 166.37C336.821 165.46 337.015 164.485 337.015 163.5V129.75L301.188 100.147Z" fill="url(#paint0_linear_70613_764)"/>
</g>
<defs>
<linearGradient id="paint0_linear_70613_764" x1="277.015" y1="51" x2="277.015" y2="171" gradientUnits="userSpaceOnUse">
<stop stop-color="#873EFF"/>
<stop offset="1" stop-color="#873EFF" stop-opacity="0"/>
</linearGradient>
<clipPath id="clip0_70613_764">
<rect width="120" height="120" fill="white" transform="translate(217 51)"/>
</clipPath>
</defs>
</svg>
