<svg width="200" height="214" viewBox="0 0 200 214" fill="none" xmlns="http://www.w3.org/2000/svg">
<g clip-path="url(#clip0_2_2)">
<path d="M5 65L100 0L195 65L100 10L5 65ZM5 134L100 214L195 129L100 204L5 134Z" fill="#873EFF"/>
<path d="M0.692885 124.45C0.145474 124.45 -0.182973 123.21 0.10898 123.173C1.75121 122.991 3.50293 121.129 3.50293 116.823V95.4741C3.50293 92.9195 2.04317 92.4086 0.473921 92.1896C0.181968 92.1532 0.400933 91.0583 0.692885 91.0583H10.6923C10.9842 91.0583 11.2032 92.1532 10.9112 92.1896C9.34199 92.4086 7.88222 92.9195 7.88222 95.4741V116.823C7.88222 120.509 3.21098 124.45 0.692885 124.45ZM27.412 113.794C27.7405 113.721 28.0324 114.707 27.8135 114.816C26.3902 115.509 23.4342 117.188 22.7408 117.188C18.252 117.188 12.486 115.071 12.486 108.612C12.486 104.269 15.15 98.9776 21.6825 98.9776C27.1931 98.9776 27.8865 102.919 27.8865 104.452C27.8865 105.401 27.5945 106.824 27.2296 107.663L16.3908 107.955C17.0842 112.48 20.7701 114.378 23.6532 114.378C23.9816 114.378 25.5508 114.196 27.412 113.794ZM20.4052 101.313C17.5221 101.313 16.3908 103.284 16.2813 106.057L24.2006 105.802C24.5655 103.831 23.6167 101.313 20.4052 101.313ZM34.6799 117.188C32.1618 117.188 29.6802 115.692 29.6802 112.736C29.6802 110.765 30.848 109.707 33.4755 108.867L38.8037 107.152C39.8985 106.787 40.227 106.751 40.227 105.838V104.379C40.227 102.116 39.0956 101.861 37.6724 101.861C35.7382 101.861 33.439 102.372 32.0888 102.517C31.7603 102.554 31.5414 102.372 31.5049 102.116L31.4319 101.459C31.3224 100.51 36.8695 98.9776 39.643 98.9776C43.8764 98.9776 44.1683 102.335 44.1683 104.926V112.626C44.1683 115.692 46.7959 114.451 47.3068 114.779C47.4893 114.889 47.5623 115.144 47.5623 115.29C47.5623 116.057 44.4603 117.188 42.9275 117.188C41.7597 117.188 41.0298 116.531 40.154 114.67C36.687 116.787 35.9207 117.188 34.6799 117.188ZM36.4316 114.488C38.2928 114.488 40.2634 113.174 40.2634 111.313V108.466C40.0445 108.612 40.081 108.648 39.3876 108.867L35.7017 110.108C34.5339 110.51 33.95 111.13 33.95 112.225C33.95 113.612 34.8988 114.488 36.4316 114.488ZM47.9327 116.604C47.6407 116.604 47.3853 115.546 47.6772 115.509C48.772 115.363 50.1953 114.852 50.1953 112.736V103.977C50.1953 102.226 49.2465 101.824 47.7137 101.642C47.4218 101.605 47.5677 100.656 47.8597 100.583L53.6258 98.9776C54.0637 98.8681 54.2462 99.16 54.2462 99.525C54.2462 100.547 54.5381 100.912 55.122 100.693C56.9102 100.036 58.6255 98.9776 60.8151 98.9776C64.3915 98.9776 65.6323 101.715 65.6323 104.087V112.736C65.6323 114.852 67.0556 115.363 68.1504 115.509C68.4424 115.546 68.1869 116.604 67.9314 116.604H59.7933C59.5378 116.604 59.3553 115.546 59.5743 115.509C60.9611 115.29 61.7275 114.67 61.7275 112.736V105.729C61.7275 102.663 60.2312 101.97 57.8956 101.97C56.3263 101.97 54.1002 102.408 54.1002 103.357V112.736C54.1002 114.67 55.0855 115.327 56.4358 115.509C56.6913 115.546 56.4723 116.604 56.1804 116.604H47.9327ZM107.137 115.363C107.429 115.4 107.21 116.604 106.955 116.604H97.4296C97.1742 116.604 96.9917 115.4 97.2107 115.363C98.7434 115.108 99.8747 114.378 99.7653 112.079L99.0719 99.8169L93.1598 111.86C92.3934 113.429 91.8095 115.035 91.7001 115.619C91.6271 116.057 90.8607 116.276 90.2768 116.276C89.7294 116.276 89.3644 116.057 89.1455 115.619L80.7153 99.6344L80.1679 112.079C80.0584 114.634 81.5547 115.217 82.7225 115.363C83.0145 115.4 82.7955 116.604 82.54 116.604H74.9858C74.6938 116.604 74.4748 115.4 74.7668 115.363C76.336 115.181 77.6498 114.634 77.7958 112.079L78.9636 91.1313C79.0001 90.5109 80.3869 90.4744 80.7518 91.1313L91.3351 110.911L101.152 91.1313C101.48 90.4744 102.94 90.5109 102.977 91.1313L104.145 112.079C104.291 114.634 105.604 115.181 107.137 115.363ZM113.711 117.188C111.193 117.188 108.712 115.692 108.712 112.736C108.712 110.765 109.88 109.707 112.507 108.867L117.835 107.152C118.93 106.787 119.259 106.751 119.259 105.838V104.379C119.259 102.116 118.127 101.861 116.704 101.861C114.77 101.861 112.471 102.372 111.12 102.517C110.792 102.554 110.573 102.372 110.536 102.116L110.464 101.459C110.354 100.51 115.901 98.9776 118.675 98.9776C122.908 98.9776 123.2 102.335 123.2 104.926V112.626C123.2 115.692 125.828 114.451 126.338 114.779C126.521 114.889 126.594 115.144 126.594 115.29C126.594 116.057 123.492 117.188 121.959 117.188C120.791 117.188 120.061 116.531 119.186 114.67C115.719 116.787 114.952 117.188 113.711 117.188ZM115.463 114.488C117.324 114.488 119.295 113.174 119.295 111.313V108.466C119.076 108.612 119.113 108.648 118.419 108.867L114.733 110.108C113.566 110.51 112.982 111.13 112.982 112.225C112.982 113.612 113.93 114.488 115.463 114.488ZM126.964 116.604C126.672 116.604 126.417 115.546 126.709 115.509C127.804 115.363 129.227 114.816 129.227 112.298V103.977C129.227 102.226 128.278 101.824 126.745 101.642C126.453 101.605 126.599 100.656 126.891 100.583L132.657 98.9776C133.095 98.8681 133.278 99.16 133.278 99.4885C133.278 100.547 133.351 101.824 134.154 101.313C135.504 100.437 137.511 98.9776 138.715 98.9776C139.226 98.9776 140.54 100.036 140.431 100.62C140.102 102.372 139.701 103.649 139.153 103.649C138.971 103.649 138.095 102.7 136.161 102.7C134.701 102.7 133.132 103.138 133.132 105.036V112.298C133.132 114.816 134.154 114.998 137.475 115.509C137.73 115.546 137.621 116.604 136.891 116.604H126.964ZM147.771 117.188C146.275 117.188 144.268 115.801 144.268 114.743V104.196C144.268 102.08 143.648 101.459 141.093 101.459C140.692 101.459 140.692 100.328 140.984 100.218C143.757 99.1235 145.107 98.1382 147.078 95.8756C147.552 95.3281 148.538 95.8756 148.392 96.496C148.246 97.1528 148.173 97.7003 148.173 98.1382C148.173 99.452 148.757 99.8534 149.633 99.8534C150.983 99.8534 152.662 99.4885 153.975 99.379C154.34 99.3425 154.486 99.6709 154.486 100.145C154.486 101.094 153.902 102.444 153.319 102.408L151.895 102.299C149.414 102.116 148.136 102.153 148.136 103.831V112.444C148.136 113.831 148.83 114.342 150.107 114.342C151.238 114.342 153.246 114.123 154.231 114.013C154.523 113.977 154.851 115.071 154.486 115.217C152.479 116.02 150.764 116.531 147.771 117.188ZM159.528 95.5471C158.725 95.5471 156.754 93.8319 156.754 92.7736C156.754 91.7152 158.725 90 159.528 90C160.331 90 162.302 91.7152 162.302 92.7736C162.302 93.8319 160.331 95.5471 159.528 95.5471ZM155.55 116.604C155.258 116.604 155.003 115.546 155.295 115.509C156.426 115.363 157.849 114.852 157.849 112.736V104.671C157.849 102.444 157.265 101.897 155.368 101.642C155.076 101.605 155.185 100.656 155.441 100.583L161.9 99.0505C162.265 98.9776 162.448 99.233 162.338 99.7074C162.083 100.875 161.754 103.028 161.754 105.401V112.736C161.754 114.852 163.177 115.363 164.309 115.509C164.564 115.546 164.345 116.604 164.053 116.604H155.55ZM165.336 116.604C165.044 116.604 164.789 115.546 165.081 115.509C166.175 115.363 167.599 114.852 167.599 112.736V103.977C167.599 102.226 166.65 101.824 165.117 101.642C164.825 101.605 164.971 100.656 165.263 100.583L171.029 98.9776C171.467 98.8681 171.65 99.16 171.65 99.525C171.65 100.547 171.941 100.912 172.525 100.693C174.314 100.036 176.029 98.9776 178.218 98.9776C181.795 98.9776 183.036 101.715 183.036 104.087V112.736C183.036 114.852 184.459 115.363 185.554 115.509C185.846 115.546 185.59 116.604 185.335 116.604H177.197C176.941 116.604 176.759 115.546 176.978 115.509C178.364 115.29 179.131 114.67 179.131 112.736V105.729C179.131 102.663 177.635 101.97 175.299 101.97C173.73 101.97 171.504 102.408 171.504 103.357V112.736C171.504 114.67 172.489 115.327 173.839 115.509C174.095 115.546 173.876 116.604 173.584 116.604H165.336ZM192.639 117.188C189.683 117.188 186.581 115.984 186.983 114.889L187.566 113.356C188.406 111.13 189.902 114.962 193.989 114.962C197.529 114.962 198.004 112.626 195.194 111.203L190.413 108.794C184.829 105.984 186.691 98.9776 193.843 98.9776C196.544 98.9776 199.318 100.072 198.88 101.131L198.259 102.663C197.383 104.853 195.997 101.24 192.384 101.24C189.61 101.24 189.099 103.576 191.654 104.853L196.617 107.371C202.456 110.327 200.485 117.188 192.639 117.188Z" fill="#873EFF"/>
</g>
<defs>
<clipPath id="clip0_2_2">
<rect width="200" height="214" fill="#873EFF"/>
</clipPath>
</defs>
</svg>
